<svg xmlns="http://www.w3.org/2000/svg" width="1280" height="720" viewBox="0 0 1280 720" font-family="DejaVu Sans, sans-serif">
<defs>
  <radialGradient id="base" cx="0.5" cy="0.4" r="0.95">
    <stop offset="0" stop-color="#0b1022"/>
    <stop offset="0.55" stop-color="#06070f"/>
    <stop offset="1" stop-color="#010207"/>
  </radialGradient>
  <radialGradient id="cyan" cx="0.5" cy="0.5" r="0.5">
    <stop offset="0" stop-color="#1ab8ff" stop-opacity="0.9"/><stop offset="1" stop-color="#1ab8ff" stop-opacity="0"/>
  </radialGradient>
  <radialGradient id="mag" cx="0.5" cy="0.5" r="0.5">
    <stop offset="0" stop-color="#ff2f8e" stop-opacity="0.85"/><stop offset="1" stop-color="#ff2f8e" stop-opacity="0"/>
  </radialGradient>
  <radialGradient id="viol" cx="0.5" cy="0.5" r="0.5">
    <stop offset="0" stop-color="#8b2bff" stop-opacity="0.75"/><stop offset="1" stop-color="#8b2bff" stop-opacity="0"/>
  </radialGradient>
  <linearGradient id="beam" x1="0" y1="0" x2="0" y2="1">
    <stop offset="0" stop-color="#cdefff" stop-opacity="0"/><stop offset="0.5" stop-color="#cdefff" stop-opacity="0.20"/><stop offset="1" stop-color="#cdefff" stop-opacity="0"/>
  </linearGradient>
  <linearGradient id="wm" x1="0" y1="0" x2="0" y2="1">
    <stop offset="0" stop-color="#ffffff"/><stop offset="0.5" stop-color="#eaf3ff"/><stop offset="1" stop-color="#a7c6ee"/>
  </linearGradient>
  <linearGradient id="tv" x1="0" y1="0" x2="1" y2="1">
    <stop offset="0" stop-color="#28ccff"/><stop offset="1" stop-color="#ff2f8e"/>
  </linearGradient>
  <radialGradient id="vig" cx="0.5" cy="0.44" r="0.75">
    <stop offset="0" stop-color="#000" stop-opacity="0"/><stop offset="0.68" stop-color="#000" stop-opacity="0"/><stop offset="1" stop-color="#000" stop-opacity="0.9"/>
  </radialGradient>
  <filter id="glow" x="-60%" y="-60%" width="220%" height="220%">
    <feGaussianBlur stdDeviation="8" result="b"/><feMerge><feMergeNode in="b"/><feMergeNode in="SourceGraphic"/></feMerge>
  </filter>
  <filter id="glowBig" x="-120%" y="-120%" width="340%" height="340%">
    <feGaussianBlur stdDeviation="30" result="b"/><feMerge><feMergeNode in="b"/><feMergeNode in="b"/><feMergeNode in="SourceGraphic"/></feMerge>
  </filter>
  <filter id="soft" x="-100%" y="-100%" width="300%" height="300%"><feGaussianBlur stdDeviation="55"/></filter>
  <filter id="grain"><feTurbulence type="fractalNoise" baseFrequency="0.85" numOctaves="2" stitchTiles="stitch" result="n"/>
    <feColorMatrix in="n" type="matrix" values="0 0 0 0 1  0 0 0 0 1  0 0 0 0 1  0 0 0 0.55 0"/></filter>
</defs>

<rect width="1280" height="720" fill="url(#base)"/>

<!-- cinematic color lighting -->
<g filter="url(#soft)">
  <ellipse cx="250" cy="170" rx="360" ry="300" fill="url(#cyan)"/>
  <ellipse cx="1060" cy="580" rx="420" ry="360" fill="url(#mag)"/>
  <ellipse cx="930" cy="120" rx="320" ry="280" fill="url(#viol)"/>
</g>

<!-- light beams -->
<g transform="rotate(-22 640 360)" opacity="0.6">
  <rect x="140" y="-200" width="80" height="1120" fill="url(#beam)"/>
  <rect x="360" y="-200" width="44" height="1120" fill="url(#beam)" opacity="0.7"/>
  <rect x="1000" y="-200" width="64" height="1120" fill="url(#beam)" opacity="0.6"/>
</g>

<!-- bokeh -->
<g filter="url(#glowBig)" opacity="0.85">
  <circle cx="170" cy="520" r="9" fill="#1ab8ff"/><circle cx="330" cy="130" r="6" fill="#cdefff"/>
  <circle cx="1130" cy="210" r="11" fill="#ff2f8e"/><circle cx="1000" cy="640" r="7" fill="#8b2bff"/>
  <circle cx="700" cy="640" r="8" fill="#1ab8ff"/><circle cx="590" cy="96" r="5" fill="#ffffff"/>
</g>

<!-- letterbox bars -->
<rect x="0" y="0" width="1280" height="52" fill="#000"/>
<rect x="0" y="668" width="1280" height="52" fill="#000"/>

<!-- kicker -->
<text x="640" y="214" text-anchor="middle" font-size="28" letter-spacing="16" font-weight="bold" fill="#ffcf6a" filter="url(#glow)">PREMIUM LIVE TV</text>

<!-- wordmark -->
<text x="640" y="382" text-anchor="middle" font-size="152" font-weight="bold" fill="url(#wm)" filter="url(#glowBig)">KOZEE<tspan fill="url(#tv)"> TV</tspan></text>

<!-- neon rule -->
<rect x="452" y="416" width="376" height="4" rx="2" fill="url(#tv)" filter="url(#glow)"/>

<!-- tagline -->
<text x="640" y="482" text-anchor="middle" font-size="33" fill="#e2ecfa">16 canales de EE.UU. &#183; HD &#183; 24/7</text>

<!-- EN VIVO pill -->
<g transform="translate(541,522)" filter="url(#glow)">
  <rect x="0" y="0" width="198" height="56" rx="28" fill="#e0304a"/>
  <circle cx="37" cy="28" r="9" fill="#ffffff"/>
  <text x="59" y="37" font-size="25" font-weight="bold" fill="#ffffff" letter-spacing="1">EN VIVO</text>
</g>

<!-- vignette + film grain -->
<rect width="1280" height="720" fill="url(#vig)"/>
<rect width="1280" height="720" filter="url(#grain)" opacity="0.05"/>
</svg>
